<svg width="512" height="512" viewBox="0 0 512 512" fill="none" xmlns="http://www.w3.org/2000/svg">
  <rect width="512" height="512" rx="108" fill="#007AFF"/>
  <circle cx="256" cy="220" r="100" fill="white"/>
  <path d="M256 140C201.533 140 156 185.533 156 240C156 294.467 201.533 340 256 340C310.467 340 356 294.467 356 240C356 185.533 310.467 140 256 140ZM256 320C212.533 320 176 283.467 176 240C176 196.533 212.533 160 256 160C299.467 160 336 196.533 336 240C336 283.467 299.467 320 256 320Z" fill="#007AFF"/>
  <path d="M256 180V240L296 280" stroke="#007AFF" stroke-width="16" stroke-linecap="round" stroke-linejoin="round"/>
  <rect x="176" y="360" width="160" height="32" rx="16" fill="white"/>
  <rect x="206" y="400" width="100" height="24" rx="12" fill="white" opacity="0.8"/>
</svg>
